%FSLAX46Y46*%
%MOMM*%
%LPD*%
%ADD11C,0.050*%
D11*
X39750000Y29750000D02*
X90250000Y29750000D01*
X90250000Y80250000D01*
X39750000Y80250000D01*
X39750000Y29750000D01*
D11*
X16000000Y81900000D02*
X31500000Y81900000D01*
X31500000Y94800000D01*
X16000000Y94800000D01*
X16000000Y81900000D01*
D11*
X16000000Y15200000D02*
X31500000Y15200000D01*
X31500000Y28100000D01*
X16000000Y28100000D01*
X16000000Y15200000D01*
D11*
X32500000Y81900000D02*
X48000000Y81900000D01*
X48000000Y94800000D01*
X32500000Y94800000D01*
X32500000Y81900000D01*
D11*
X32500000Y15200000D02*
X48000000Y15200000D01*
X48000000Y28100000D01*
X32500000Y28100000D01*
X32500000Y15200000D01*
D11*
X49000000Y81900000D02*
X64500000Y81900000D01*
X64500000Y94800000D01*
X49000000Y94800000D01*
X49000000Y81900000D01*
D11*
X49000000Y15200000D02*
X64500000Y15200000D01*
X64500000Y28100000D01*
X49000000Y28100000D01*
X49000000Y15200000D01*
D11*
X65500000Y81900000D02*
X81000000Y81900000D01*
X81000000Y94800000D01*
X65500000Y94800000D01*
X65500000Y81900000D01*
D11*
X65500000Y15200000D02*
X81000000Y15200000D01*
X81000000Y28100000D01*
X65500000Y28100000D01*
X65500000Y15200000D01*
D11*
X82000000Y81900000D02*
X97500000Y81900000D01*
X97500000Y94800000D01*
X82000000Y94800000D01*
X82000000Y81900000D01*
D11*
X82000000Y15200000D02*
X97500000Y15200000D01*
X97500000Y28100000D01*
X82000000Y28100000D01*
X82000000Y15200000D01*
D11*
X98500000Y81900000D02*
X114000000Y81900000D01*
X114000000Y94800000D01*
X98500000Y94800000D01*
X98500000Y81900000D01*
D11*
X98500000Y15200000D02*
X114000000Y15200000D01*
X114000000Y28100000D01*
X98500000Y28100000D01*
X98500000Y15200000D01*
D11*
X1050000Y14250000D02*
X13950000Y14250000D01*
X13950000Y29750000D01*
X1050000Y29750000D01*
X1050000Y14250000D01*
D11*
X116050000Y14250000D02*
X128950000Y14250000D01*
X128950000Y29750000D01*
X116050000Y29750000D01*
X116050000Y14250000D01*
D11*
X1050000Y36250000D02*
X13950000Y36250000D01*
X13950000Y51750000D01*
X1050000Y51750000D01*
X1050000Y36250000D01*
D11*
X116050000Y36250000D02*
X128950000Y36250000D01*
X128950000Y51750000D01*
X116050000Y51750000D01*
X116050000Y36250000D01*
D11*
X1050000Y58250000D02*
X13950000Y58250000D01*
X13950000Y73750000D01*
X1050000Y73750000D01*
X1050000Y58250000D01*
D11*
X116050000Y58250000D02*
X128950000Y58250000D01*
X128950000Y73750000D01*
X116050000Y73750000D01*
X116050000Y58250000D01*
D11*
X1050000Y80250000D02*
X13950000Y80250000D01*
X13950000Y95750000D01*
X1050000Y95750000D01*
X1050000Y80250000D01*
D11*
X116050000Y80250000D02*
X128950000Y80250000D01*
X128950000Y95750000D01*
X116050000Y95750000D01*
X116050000Y80250000D01*
M02*
