%FSLAX46Y46*%
%MOMM*%
%LPD*%
%ADD12C,0.010*%
G36*
X40000000Y30000000D02*
X90000000Y30000000D01*
X90000000Y80000000D01*
X40000000Y80000000D01*
X40000000Y30000000D01*
G37*
G36*
X16250000Y82150000D02*
X31250000Y82150000D01*
X31250000Y94550000D01*
X16250000Y94550000D01*
X16250000Y82150000D01*
G37*
G36*
X16250000Y15450000D02*
X31250000Y15450000D01*
X31250000Y27850000D01*
X16250000Y27850000D01*
X16250000Y15450000D01*
G37*
G36*
X32750000Y82150000D02*
X47750000Y82150000D01*
X47750000Y94550000D01*
X32750000Y94550000D01*
X32750000Y82150000D01*
G37*
G36*
X32750000Y15450000D02*
X47750000Y15450000D01*
X47750000Y27850000D01*
X32750000Y27850000D01*
X32750000Y15450000D01*
G37*
G36*
X49250000Y82150000D02*
X64250000Y82150000D01*
X64250000Y94550000D01*
X49250000Y94550000D01*
X49250000Y82150000D01*
G37*
G36*
X49250000Y15450000D02*
X64250000Y15450000D01*
X64250000Y27850000D01*
X49250000Y27850000D01*
X49250000Y15450000D01*
G37*
G36*
X65750000Y82150000D02*
X80750000Y82150000D01*
X80750000Y94550000D01*
X65750000Y94550000D01*
X65750000Y82150000D01*
G37*
G36*
X65750000Y15450000D02*
X80750000Y15450000D01*
X80750000Y27850000D01*
X65750000Y27850000D01*
X65750000Y15450000D01*
G37*
G36*
X82250000Y82150000D02*
X97250000Y82150000D01*
X97250000Y94550000D01*
X82250000Y94550000D01*
X82250000Y82150000D01*
G37*
G36*
X82250000Y15450000D02*
X97250000Y15450000D01*
X97250000Y27850000D01*
X82250000Y27850000D01*
X82250000Y15450000D01*
G37*
G36*
X98750000Y82150000D02*
X113750000Y82150000D01*
X113750000Y94550000D01*
X98750000Y94550000D01*
X98750000Y82150000D01*
G37*
G36*
X98750000Y15450000D02*
X113750000Y15450000D01*
X113750000Y27850000D01*
X98750000Y27850000D01*
X98750000Y15450000D01*
G37*
G36*
X1300000Y14500000D02*
X13700000Y14500000D01*
X13700000Y29500000D01*
X1300000Y29500000D01*
X1300000Y14500000D01*
G37*
G36*
X116300000Y14500000D02*
X128700000Y14500000D01*
X128700000Y29500000D01*
X116300000Y29500000D01*
X116300000Y14500000D01*
G37*
G36*
X1300000Y36500000D02*
X13700000Y36500000D01*
X13700000Y51500000D01*
X1300000Y51500000D01*
X1300000Y36500000D01*
G37*
G36*
X116300000Y36500000D02*
X128700000Y36500000D01*
X128700000Y51500000D01*
X116300000Y51500000D01*
X116300000Y36500000D01*
G37*
G36*
X1300000Y58500000D02*
X13700000Y58500000D01*
X13700000Y73500000D01*
X1300000Y73500000D01*
X1300000Y58500000D01*
G37*
G36*
X116300000Y58500000D02*
X128700000Y58500000D01*
X128700000Y73500000D01*
X116300000Y73500000D01*
X116300000Y58500000D01*
G37*
G36*
X1300000Y80500000D02*
X13700000Y80500000D01*
X13700000Y95500000D01*
X1300000Y95500000D01*
X1300000Y80500000D01*
G37*
G36*
X116300000Y80500000D02*
X128700000Y80500000D01*
X128700000Y95500000D01*
X116300000Y95500000D01*
X116300000Y80500000D01*
G37*
M02*
